<svg xmlns="http://www.w3.org/2000/svg" xmlns:xlink="http://www.w3.org/1999/xlink" xmlns:lucid="lucid" width="1440" height="580"><g transform="translate(-240 -220)" lucid:page-tab-id="0_0"><path d="M260 240h360v540H260z" fill="#fff"/><path d="M271.74 240h7.83m7.82 0h7.82m7.82 0h7.83m7.83 0h7.82m7.83 0h7.82m7.83 0h7.83m7.82 0h7.83m7.82 0h7.83m7.83 0h7.82m7.83 0h7.83m7.83 0h7.83m7.8 0h7.84m7.83 0h7.82m7.82 0h7.82m7.83 0h7.83m7.82 0h7.83m7.82 0H530m7.83 0h7.82m7.83 0h7.82m7.83 0h7.83m7.82 0h7.83m7.83 0h7.83m7.83 0h3.9v3.97m0 7.94v7.95m0 7.94v7.94m0 7.94v7.94m0 7.94v7.94m0 7.94v7.94m0 7.94v7.94m0 7.95v7.95m0 7.94v7.93m0 7.94v7.94m0 7.95v7.94m0 7.94v7.94m0 7.94v7.94m0 7.94v7.94m0 7.94v7.94m0 7.94v7.95m0 7.95v7.94m0 7.93v7.94m0 7.94v7.95m0 7.94v7.94m0 7.94v7.94m0 7.94v7.94m0 7.94v7.94m0 7.94v7.94m0 7.95v7.95m0 7.94v7.93m0 7.94v7.94m0 7.95v7.94m0 7.94v7.94m0 7.94v7.94m0 7.94v7.94m0 7.94v7.94m0 7.94v7.95m0 7.95v7.94m0 7.93V780h-3.9m-7.84 0h-7.83m-7.82 0h-7.82m-7.82 0h-7.83m-7.83 0h-7.82m-7.83 0h-7.82m-7.83 0h-7.83m-7.82 0h-7.83m-7.82 0h-7.83m-7.83 0h-7.82m-7.83 0h-7.83m-7.83 0h-7.83m-7.8 0h-7.84m-7.83 0h-7.82m-7.82 0h-7.82m-7.83 0h-7.83m-7.82 0h-7.83m-7.82 0H350m-7.83 0h-7.82m-7.83 0h-7.82m-7.83 0h-7.83m-7.82 0h-7.83m-7.83 0h-7.83m-7.83 0H260v-3.97m0-7.94v-7.95m0-7.94v-7.94m0-7.94v-7.94m0-7.94v-7.94m0-7.94v-7.94m0-7.94v-7.94m0-7.95v-7.95m0-7.94v-7.93m0-7.94v-7.94m0-7.95v-7.94m0-7.94v-7.94m0-7.94v-7.94m0-7.94v-7.94m0-7.94v-7.94m0-7.94v-7.95m0-7.95v-7.94m0-7.93v-7.94m0-7.94v-7.95m0-7.94v-7.94m0-7.94v-7.94m0-7.94v-7.94m0-7.94v-7.94m0-7.94v-7.94m0-7.95v-7.95m0-7.94v-7.93m0-7.94v-7.94m0-7.95v-7.94m0-7.94v-7.94m0-7.94v-7.94m0-7.94v-7.94m0-7.94v-7.94m0-7.94v-7.95m0-7.95v-7.94m0-7.93V240h3.9" stroke="#000" stroke-width="2" fill="none"/><use xlink:href="#a" transform="matrix(1,0,0,1,265,245) translate(143.9206790123457 17.955555555555552)"/><path d="M433.22 460h13.56c12.9 0 23.28 1.98 23.28 4.5v81c0 2.52-10.38 4.5-23.28 4.5h-13.56c-12.84 0-23.22-1.98-23.22-4.5v-81c0-2.52 10.38-4.5 23.22-4.5z" fill="#29aae1"/><path d="M414.2 467.2h51.66v73.53H414.2V467.2zM431.36 463.06h16.74c.42 0 .78.27.78.54s-.36.54-.78.54h-16.74c-.42 0-.78-.27-.78-.54s.36-.54.78-.54zM433.52 545.68c0 .63-.48 1.08-1.14 1.08-.6 0-1.14-.45-1.14-1.08 0-.54.54-1.08 1.14-1.08.66 0 1.14.54 1.14 1.08zM441.8 545.68c0 .63-.48 1.08-1.14 1.08-.6 0-1.08-.45-1.08-1.08 0-.54.48-1.08 1.08-1.08.66 0 1.14.54 1.14 1.08zM449.66 545.68c0 .63-.54 1.08-1.14 1.08-.66 0-1.14-.45-1.14-1.08 0-.54.48-1.08 1.14-1.08.6 0 1.14.54 1.14 1.08z" fill="#fff"/><path d="M415.64 468.46h48.72v70.92h-48.72v-70.92z" fill="gray"/><use xlink:href="#b" transform="matrix(1,0,0,1,380,550) translate(7.549999999999997 18.6)"/><use xlink:href="#c" transform="matrix(1,0,0,1,380,550) translate(60.45 18.6)"/><path d="M700 540h520v240H700z" fill="#fff"/><path d="M711.82 540h7.88m7.88 0h7.87m7.88 0h7.88m7.9 0h7.87m7.88 0h7.88m7.88 0h7.88m7.88 0h7.88m7.88 0H830m7.88 0h7.88m7.88 0h7.88m7.87 0h7.87m7.88 0h7.88m7.88 0h7.9m7.87 0h7.88m7.87 0h7.88m7.88 0h7.88m7.88 0h7.88m7.88 0h7.88m7.87 0h7.88m7.88 0h7.9m7.87 0h7.88m7.88 0h7.88m7.88 0h7.88m7.88 0h7.88m7.88 0h7.88m7.88 0h7.88m7.88 0h7.87m7.87 0h7.88m7.88 0h7.88m7.9 0h7.87m7.88 0h7.87m7.88 0h7.88m7.88 0h3.94v4m0 8v8m0 8v8m0 8v8m0 8v8m0 8v8m0 8v8m0 8v8m0 8v8m0 8v8m0 8v8m0 8v8m0 8v8m0 8v8m0 8v8m0 8v4h-3.94m-7.88 0h-7.88m-7.88 0h-7.87m-7.88 0h-7.88m-7.9 0h-7.87m-7.88 0h-7.88m-7.88 0h-7.88m-7.88 0h-7.88m-7.88 0H1090m-7.88 0h-7.88m-7.88 0h-7.88m-7.87 0h-7.87m-7.88 0h-7.88m-7.88 0h-7.9m-7.87 0h-7.88m-7.87 0h-7.88m-7.88 0h-7.88m-7.88 0h-7.88m-7.88 0h-7.88m-7.87 0h-7.88m-7.88 0h-7.9m-7.87 0h-7.88m-7.88 0h-7.88m-7.88 0h-7.88m-7.88 0h-7.88m-7.88 0h-7.88m-7.88 0h-7.88m-7.88 0h-7.87m-7.87 0h-7.88m-7.88 0h-7.88m-7.9 0h-7.87m-7.88 0h-7.87m-7.88 0h-7.88m-7.88 0H700v-4m0-8v-8m0-8v-8m0-8v-8m0-8v-8m0-8v-8m0-8v-8m0-8v-8m0-8v-8m0-8v-8m0-8v-8m0-8v-8m0-8v-8m0-8v-8m0-8v-8m0-8v-4h3.94" stroke="#000" stroke-width="2" fill="none"/><path d="M1300 240h360v540h-360z" fill="#fff"/><path d="M1311.74 240h7.83m7.82 0h7.82m7.82 0h7.83m7.83 0h7.82m7.83 0h7.82m7.83 0h7.83m7.82 0h7.83m7.82 0h7.83m7.83 0h7.82m7.83 0h7.83m7.83 0h7.83m7.8 0h7.84m7.83 0h7.82m7.82 0h7.82m7.83 0h7.83m7.82 0h7.83m7.82 0h7.83m7.83 0h7.82m7.83 0h7.82m7.83 0h7.83m7.82 0h7.83m7.83 0h7.83m7.83 0h3.9v3.97m0 7.94v7.95m0 7.94v7.94m0 7.94v7.94m0 7.94v7.94m0 7.94v7.94m0 7.94v7.94m0 7.95v7.95m0 7.94v7.93m0 7.94v7.94m0 7.95v7.94m0 7.94v7.94m0 7.94v7.94m0 7.94v7.94m0 7.94v7.94m0 7.94v7.95m0 7.95v7.94m0 7.93v7.94m0 7.94v7.95m0 7.94v7.94m0 7.94v7.94m0 7.94v7.94m0 7.94v7.94m0 7.94v7.94m0 7.95v7.95m0 7.94v7.93m0 7.94v7.94m0 7.95v7.94m0 7.94v7.94m0 7.94v7.94m0 7.94v7.94m0 7.94v7.94m0 7.94v7.95m0 7.95v7.94m0 7.93V780h-3.9m-7.84 0h-7.83m-7.82 0h-7.82m-7.82 0h-7.83m-7.83 0h-7.82m-7.83 0h-7.82m-7.83 0h-7.83m-7.82 0h-7.83m-7.82 0h-7.83m-7.83 0h-7.82m-7.83 0h-7.83m-7.83 0h-7.83m-7.8 0h-7.84m-7.83 0h-7.82m-7.82 0h-7.82m-7.83 0h-7.83m-7.82 0h-7.83m-7.82 0H1390m-7.83 0h-7.82m-7.83 0h-7.82m-7.83 0h-7.83m-7.82 0h-7.83m-7.83 0h-7.83m-7.83 0h-3.9v-3.97m0-7.94v-7.95m0-7.94v-7.94m0-7.94v-7.94m0-7.94v-7.94m0-7.94v-7.94m0-7.94v-7.94m0-7.95v-7.95m0-7.94v-7.93m0-7.94v-7.94m0-7.95v-7.94m0-7.94v-7.94m0-7.94v-7.94m0-7.94v-7.94m0-7.94v-7.94m0-7.94v-7.95m0-7.95v-7.94m0-7.93v-7.94m0-7.94v-7.95m0-7.94v-7.94m0-7.94v-7.94m0-7.94v-7.94m0-7.94v-7.94m0-7.94v-7.94m0-7.95v-7.95m0-7.94v-7.93m0-7.94v-7.94m0-7.95v-7.94m0-7.94v-7.94m0-7.94v-7.94m0-7.94v-7.94m0-7.94v-7.94m0-7.94v-7.95m0-7.95v-7.94m0-7.93V240h3.9" stroke="#000" stroke-width="2" fill="none"/><path d="M870 611.84L884.2 600H1050v104.2l-11.84 14.2H870z" stroke="#000" stroke-width="2" fill="#fff"/><path d="M870 611.84L884.2 600H1050l-11.84 11.84z" stroke="#000" stroke-width="2" fill="#e6e6e6"/><path d="M1038.16 611.84L1050 600v104.2l-11.84 14.2z" stroke="#000" stroke-width="2" fill="#ccc"/><use xlink:href="#d" transform="matrix(1,0,0,1,878,619.84) translate(36.01 14.4)"/><use xlink:href="#e" transform="matrix(1,0,0,1,878,619.84) translate(36.01 36)"/><path d="M1524.23 471v5.92c0 2.7-7.6 7.15-21.96 9.7-8.05 1.38-16.1 2.05-24.26 2.04-29.9 0-46.4-7.74-46.4-11.7V471c0 3.96 16.3 11.7 46.4 11.7 8.62.04 15.84-.54 24.37-2 14.26-2.64 21.86-7 21.86-9.7z" fill="#4f4f4f"/><path d="M1536 517.85v5.2c-.8 32.18-27.5 57.55-59.5 56.7-30.98-.88-55.7-25.63-56.5-56.7v-5.2h116z" fill-opacity="0"/><path d="M1523.84 472.1v6c-1.57 2.6-9 6.3-21.6 8.5-7.97 1.4-16.13 2.06-24.3 2.06-29.93 0-46.34-7.74-46.34-11.66v-6c0 3.93 16.32 11.67 46.35 11.67 8.63.1 15.95-.55 24.4-1.97 12.7-2.18 20-5.88 21.68-8.6m.1 87.73c.08-.22.18-.44.18-.77v9.92l-.1.44c-.08.1-.17.32-.26.54v.1l-.28.34-.37.54-.38.44-.65.43-.56.45-.64.55-.74.32-.93.55-.75.43-1.3.55-.74.32c-.73.33-1.47.55-2.3.88l-.84.2-1.85.56-1.2.34-1.76.43-1.4.33-1.94.44-1.57.2-2.14.45-1.77.2-2.4.23-1.77.2-2.87.23-1.87.22-3.24.1h-6.97c-16.87 0-29.57-2.06-38-4.8-6.12-2.17-10.57-4.56-11.04-6.3v-9.5c.46 1.75 4.35 3.93 9.82 6l-.1-.54c13.36 4.14 25.22 5.88 39.22 5.88h6.96l3.33-.1 1.76-.1 2.78-.34 1.76-.1 2.5-.34 1.58-.2 2.3-.34 10.58-2.62c.84-.32 1.67-.54 2.4-.87l2.05-.86.47-.33 1.3-.64.46-.33.92-.54.37-.34.75-.65.27-.2.55-.67v-.43l.37-.87z" fill="#4f4f4f"/><path d="M1478 460c8.16-.07 16.3.6 24.37 1.98 14.26 2.55 21.86 7 21.86 9.74 0 2.78-7.6 7.08-21.96 9.65-8.05 1.35-16.1 2.03-24.26 1.98-29.9 0-46.4-7.73-46.4-11.67 0-3.97 16.4-11.68 46.4-11.68z" fill="#7d7c7c"/><path d="M1501.68 490.8c-1.3.27-2.5.36-3.8.64-.65 0-1.3.18-2.05.27l-3.52.38c-.82 0-1.66.18-2.4.18-1.57.1-3.06.2-4.63.28h-.84c-1.85 0-3.7.1-5.65.18h-1.2c-18.36 0-36.9-3.22-45.9-9.28v80.27c.46 1.85 4.9 4.24 11.03 6.36 8.26 2.67 21.06 4.78 37.93 4.78 30.87.1 43.76-7.45 43.76-11.5V482.9c-4.83 3.3-12.62 6.17-22.72 7.9z" fill="#7d7c7c"/><use xlink:href="#f" transform="matrix(1,0,0,1,1420,580) translate(15.549999999999997 14.4)"/><use xlink:href="#g" transform="matrix(1,0,0,1,1420,580) translate(75.5 14.4)"/><path d="M700 240h520v220H700z" fill="#fff"/><path d="M711.82 240h7.88m7.88 0h7.87m7.88 0h7.88m7.9 0h7.87m7.88 0h7.88m7.88 0h7.88m7.88 0h7.88m7.88 0H830m7.88 0h7.88m7.88 0h7.88m7.87 0h7.87m7.88 0h7.88m7.88 0h7.9m7.87 0h7.88m7.87 0h7.88m7.88 0h7.88m7.88 0h7.88m7.88 0h7.88m7.87 0h7.88m7.88 0h7.9m7.87 0h7.88m7.88 0h7.88m7.88 0h7.88m7.88 0h7.88m7.88 0h7.88m7.88 0h7.88m7.88 0h7.87m7.87 0h7.88m7.88 0h7.88m7.9 0h7.87m7.88 0h7.87m7.88 0h7.88m7.88 0h3.94v3.93m0 7.86v7.84m0 7.86v7.86m0 7.85v7.87m0 7.86v7.86m0 7.84v7.86m0 7.86v7.85m0 7.87v7.86m0 7.86v7.84m0 7.86v7.86m0 7.85v7.87m0 7.86v7.86m0 7.84v7.86m0 7.86v7.85m0 7.87V460h-3.94m-7.88 0h-7.88m-7.88 0h-7.87m-7.88 0h-7.88m-7.9 0h-7.87m-7.88 0h-7.88m-7.88 0h-7.88m-7.88 0h-7.88m-7.88 0H1090m-7.88 0h-7.88m-7.88 0h-7.88m-7.87 0h-7.87m-7.88 0h-7.88m-7.88 0h-7.9m-7.87 0h-7.88m-7.87 0h-7.88m-7.88 0h-7.88m-7.88 0h-7.88m-7.88 0h-7.88m-7.87 0h-7.88m-7.88 0h-7.9m-7.87 0h-7.88m-7.88 0h-7.88m-7.88 0h-7.88m-7.88 0h-7.88m-7.88 0h-7.88m-7.88 0h-7.88m-7.88 0h-7.87m-7.87 0h-7.88m-7.88 0h-7.88m-7.9 0h-7.87m-7.88 0h-7.87m-7.88 0h-7.88m-7.88 0H700v-3.93m0-7.86v-7.84m0-7.86v-7.86m0-7.85v-7.87m0-7.86v-7.86m0-7.84v-7.86m0-7.86v-7.85m0-7.87v-7.86m0-7.86v-7.84m0-7.86v-7.86m0-7.85v-7.87m0-7.86v-7.86m0-7.84v-7.86m0-7.86v-7.85m0-7.87V240h3.94" stroke="#000" stroke-width="2" fill="none"/><path d="M826.65 365.8l-355.34 112-.6-1.9 355.35-112.02zM840.9 360.24l-12.2 8.7-2.8-8.83z"/><path d="M844 359.27l-15.84 11.3-3.6-11.47zm-14.76 8.07l8.6-6.12-10.56-.1zM471.34 477.8l-1.28.4v-2.1l.68-.22zM851.8 652.3l-.64 1.9-157.66-53.54v-2.1zm-206.25-70.03v2.1L470.68 525l.65-1.9zM865.94 658.16l-15-.2 2.98-8.78z"/><path d="M869 659.2l-19.45-.26 3.86-11.38zm-16.67-2.22l10.54.14-8.45-6.3zM471.35 523.1l-.64 1.9-.64-.2v-2.13z"/><use xlink:href="#h" transform="matrix(1,0,0,1,645.5547204148548,580.6644733639512) translate(0 14.4)"/><path d="M633.05 455.5L488.03 500.5l-.6-1.9 145.62-45.16zm210.3-65.2L681 440.65v-2.1l161.75-50.14z"/><path d="M844 390.1l-.68.22-.6-1.9 1.28-.4zM488.15 504.24l-15-.2 12.25-8.65z"/><path d="M489.5 505.26l-19.44-.26 15.9-11.22zm-13.26-2.18l10.55.15-1.94-6.23z"/><use xlink:href="#h" transform="matrix(1,0,0,1,633.0544798966206,436.2286956521739) translate(0 14.4)"/><path d="M845 311.84L859.2 300H1075v104.2l-11.84 14.2H845z" stroke="#000" stroke-width="2" fill="#fff"/><path d="M845 311.84L859.2 300H1075l-11.84 11.84z" stroke="#000" stroke-width="2" fill="#e6e6e6"/><path d="M1063.16 311.84L1075 300v104.2l-11.84 14.2z" stroke="#000" stroke-width="2" fill="#ccc"/><use xlink:href="#d" transform="matrix(1,0,0,1,853,319.84000000000003) translate(36.01 14.4)"/><use xlink:href="#i" transform="matrix(1,0,0,1,853,319.84000000000003) translate(36.01 36)"/><path d="M1202.4 605.44h5.56l-155.7 54.45-.65-1.9 150.8-52.74zm201.08-68.4l-134.27 46.98v-.18h-5.54l139.16-48.68z"/><path d="M1052.3 659.88l-1.3.46v-2.12l.64-.22zM1405.63 540.15l-3.06-8.75 15-.33z"/><path d="M1405.14 541.78l-3.97-11.35 19.45-.43zm-1.18-9.4l2.16 6.14 8.4-6.38z"/><use xlink:href="#j" transform="matrix(1,0,0,1,1202.4081400265377,583.8389587712613) translate(0 14.4)"/><path d="M1429.03 555l-360.27 128.84-.68-1.88 360.28-128.84zM1069.04 687.6l-15 .44 11.88-9.17z"/><path d="M1070.45 688.56l-19.45.57 15.4-11.9zm-13.36-1.6l10.54-.32-2.2-6.14zM1429.25 553.18l1 1.4-1.24.43-.67-1.87.74-.26zm3.55.48l-1.12.4v-2.13l.44-.16zM868.38 687.86l-.65 1.9-387.4-134.3.65-1.9z"/><path d="M869 688.07v2.12l-1.3-.46.66-1.9zM481.22 549.8l-3.04 8.77-11.96-9.05z"/><path d="M482.62 548.84l-3.94 11.36-15.5-11.74zm-4.93 8.1l2.13-6.16-10.55-.2z"/><defs><path d="M67-125c0 53 21 87 73 88 37 1 54-22 65-47l45 17C233-25 199 4 140 4 58 4 20-42 15-125 8-235 124-281 211-232c18 10 29 29 36 50l-46 12c-8-25-30-41-62-41-52 0-71 34-72 86" id="k"/><path d="M25 0v-261h50V0H25" id="l"/><path d="M25-224v-37h50v37H25zM25 0v-190h50V0H25" id="m"/><path d="M185-48c-13 30-37 53-82 52C43 2 14-33 14-96s30-98 90-98c62 0 83 45 84 108H66c0 31 8 55 39 56 18 0 30-7 34-22zm-45-69c5-46-57-63-70-21-2 6-4 13-4 21h74" id="n"/><path d="M135-194c87-1 58 113 63 194h-50c-7-57 23-157-34-157-59 0-34 97-39 157H25l-1-190h47c2 12-1 28 3 38 12-26 28-41 61-42" id="o"/><path d="M115-3C79 11 28 4 28-45v-112H4v-33h27l15-45h31v45h36v33H77v99c-1 23 16 31 38 25v30" id="p"/><g id="a"><use transform="matrix(0.06234567901234567,0,0,0.06234567901234567,0,0)" xlink:href="#k"/><use transform="matrix(0.06234567901234567,0,0,0.06234567901234567,16.147530864197527,0)" xlink:href="#l"/><use transform="matrix(0.06234567901234567,0,0,0.06234567901234567,22.382098765432094,0)" xlink:href="#m"/><use transform="matrix(0.06234567901234567,0,0,0.06234567901234567,28.61666666666666,0)" xlink:href="#n"/><use transform="matrix(0.06234567901234567,0,0,0.06234567901234567,41.08580246913579,0)" xlink:href="#o"/><use transform="matrix(0.06234567901234567,0,0,0.06234567901234567,54.7395061728395,0)" xlink:href="#p"/></g><path d="M185-189c-5-48-123-54-124 2 14 75 158 14 163 119 3 78-121 87-175 55-17-10-28-26-33-46l33-7c5 56 141 63 141-1 0-78-155-14-162-118-5-82 145-84 179-34 5 7 8 16 11 25" id="q"/><path d="M210-169c-67 3-38 105-44 169h-31v-121c0-29-5-50-35-48C34-165 62-65 56 0H25l-1-190h30c1 10-1 24 2 32 10-44 99-50 107 0 11-21 27-35 58-36 85-2 47 119 55 194h-31v-121c0-29-5-49-35-48" id="r"/><path d="M141-36C126-15 110 5 73 4 37 3 15-17 15-53c-1-64 63-63 125-63 3-35-9-54-41-54-24 1-41 7-42 31l-33-3c5-37 33-52 76-52 45 0 72 20 72 64v82c-1 20 7 32 28 27v20c-31 9-61-2-59-35zM48-53c0 20 12 33 32 33 41-3 63-29 60-74-43 2-92-5-92 41" id="s"/><path d="M114-163C36-179 61-72 57 0H25l-1-190h30c1 12-1 29 2 39 6-27 23-49 58-41v29" id="t"/><path d="M59-47c-2 24 18 29 38 22v24C64 9 27 4 27-40v-127H5v-23h24l9-43h21v43h35v23H59v120" id="u"/><g id="b"><use transform="matrix(0.05,0,0,0.05,0,0)" xlink:href="#q"/><use transform="matrix(0.05,0,0,0.05,12,0)" xlink:href="#r"/><use transform="matrix(0.05,0,0,0.05,26.950000000000003,0)" xlink:href="#s"/><use transform="matrix(0.05,0,0,0.05,36.95,0)" xlink:href="#t"/><use transform="matrix(0.05,0,0,0.05,42.900000000000006,0)" xlink:href="#u"/></g><path d="M30-248c87 1 191-15 191 75 0 78-77 80-158 76V0H30v-248zm33 125c57 0 124 11 124-50 0-59-68-47-124-48v98" id="v"/><path d="M106-169C34-169 62-67 57 0H25v-261h32l-1 103c12-21 28-36 61-36 89 0 53 116 60 194h-32v-121c2-32-8-49-39-48" id="w"/><path d="M100-194c62-1 85 37 85 99 1 63-27 99-86 99S16-35 15-95c0-66 28-99 85-99zM99-20c44 1 53-31 53-75 0-43-8-75-51-75s-53 32-53 75 10 74 51 75" id="x"/><path d="M117-194c89-4 53 116 60 194h-32v-121c0-31-8-49-39-48C34-167 62-67 57 0H25l-1-190h30c1 10-1 24 2 32 11-22 29-35 61-36" id="y"/><path d="M100-194c63 0 86 42 84 106H49c0 40 14 67 53 68 26 1 43-12 49-29l28 8c-11 28-37 45-77 45C44 4 14-33 15-96c1-61 26-98 85-98zm52 81c6-60-76-77-97-28-3 7-6 17-6 28h103" id="z"/><g id="c"><use transform="matrix(0.05,0,0,0.05,0,0)" xlink:href="#v"/><use transform="matrix(0.05,0,0,0.05,12,0)" xlink:href="#w"/><use transform="matrix(0.05,0,0,0.05,22,0)" xlink:href="#x"/><use transform="matrix(0.05,0,0,0.05,32,0)" xlink:href="#y"/><use transform="matrix(0.05,0,0,0.05,42,0)" xlink:href="#z"/></g><path d="M182-130c37 4 62 22 62 59C244 23 116-4 24 0v-248c84 5 203-23 205 63 0 31-19 50-47 55zM76-148c40-3 101 13 101-30 0-44-60-28-101-31v61zm0 110c48-3 116 14 116-37 0-48-69-32-116-35v72" id="A"/><path d="M133-34C117-15 103 5 69 4 32 3 11-16 11-54c-1-60 55-63 116-61 1-26-3-47-28-47-18 1-26 9-28 27l-52-2c7-38 36-58 82-57s74 22 75 68l1 82c-1 14 12 18 25 15v27c-30 8-71 5-69-32zm-48 3c29 0 43-24 42-57-32 0-66-3-65 30 0 17 8 27 23 27" id="B"/><path d="M190-63c-7 42-38 67-86 67-59 0-84-38-90-98-12-110 154-137 174-36l-49 2c-2-19-15-32-35-32-30 0-35 28-38 64-6 74 65 87 74 30" id="C"/><path d="M147 0L96-86 75-71V0H25v-261h50v150l67-79h53l-66 74L201 0h-54" id="D"/><path d="M88-194c31-1 46 15 58 34l-1-101h50l1 261h-48c-2-10 0-23-3-31C134-8 116 4 84 4 32 4 16-41 15-95c0-56 19-97 73-99zm17 164c33 0 40-30 41-66 1-37-9-64-41-64s-38 30-39 65c0 43 13 65 39 65" id="E"/><g id="e"><use transform="matrix(0.05,0,0,0.05,0,0)" xlink:href="#A"/><use transform="matrix(0.05,0,0,0.05,12.950000000000001,0)" xlink:href="#B"/><use transform="matrix(0.05,0,0,0.05,22.950000000000003,0)" xlink:href="#C"/><use transform="matrix(0.05,0,0,0.05,32.95,0)" xlink:href="#D"/><use transform="matrix(0.05,0,0,0.05,42.95,0)" xlink:href="#n"/><use transform="matrix(0.05,0,0,0.05,52.95,0)" xlink:href="#o"/><use transform="matrix(0.05,0,0,0.05,63.900000000000006,0)" xlink:href="#E"/></g><path d="M240 0l2-218c-23 76-54 145-80 218h-23L58-218 59 0H30v-248h44l77 211c21-75 51-140 76-211h43V0h-30" id="F"/><path d="M177-190C167-65 218 103 67 71c-23-6-38-20-44-43l32-5c15 47 100 32 89-28v-30C133-14 115 1 83 1 29 1 15-40 15-95c0-56 16-97 71-98 29-1 48 16 59 35 1-10 0-23 2-32h30zM94-22c36 0 50-32 50-73 0-42-14-75-50-75-39 0-46 34-46 75s6 73 46 73" id="G"/><g id="f"><use transform="matrix(0.05,0,0,0.05,0,0)" xlink:href="#F"/><use transform="matrix(0.05,0,0,0.05,14.950000000000001,0)" xlink:href="#x"/><use transform="matrix(0.05,0,0,0.05,24.950000000000003,0)" xlink:href="#y"/><use transform="matrix(0.05,0,0,0.05,34.95,0)" xlink:href="#G"/><use transform="matrix(0.05,0,0,0.05,44.95,0)" xlink:href="#x"/></g><path d="M30-248c118-7 216 8 213 122C240-48 200 0 122 0H30v-248zM63-27c89 8 146-16 146-99s-60-101-146-95v194" id="H"/><path d="M160-131c35 5 61 23 61 61C221 17 115-2 30 0v-248c76 3 177-17 177 60 0 33-19 50-47 57zm-97-11c50-1 110 9 110-42 0-47-63-36-110-37v79zm0 115c55-2 124 14 124-45 0-56-70-42-124-44v89" id="I"/><g id="g"><use transform="matrix(0.05,0,0,0.05,0,0)" xlink:href="#H"/><use transform="matrix(0.05,0,0,0.05,12.950000000000001,0)" xlink:href="#I"/></g><path d="M127-220V0H93v-220H8v-28h204v28h-85" id="J"/><path d="M143 0L79-87 56-68V0H24v-261h32v163l83-92h37l-77 82L181 0h-38" id="K"/><g id="h"><use transform="matrix(0.05,0,0,0.05,0,0)" xlink:href="#J"/><use transform="matrix(0.05,0,0,0.05,8.950000000000001,0)" xlink:href="#x"/><use transform="matrix(0.05,0,0,0.05,18.950000000000003,0)" xlink:href="#K"/><use transform="matrix(0.05,0,0,0.05,27.950000000000003,0)" xlink:href="#z"/><use transform="matrix(0.05,0,0,0.05,37.95,0)" xlink:href="#y"/></g><path d="M199 0l-22-63H83L61 0H9l90-248h61L250 0h-51zm-33-102l-36-108c-10 38-24 72-36 108h72" id="L"/><path d="M85 4C-2 5 27-109 22-190h50c7 57-23 150 33 157 60-5 35-97 40-157h50l1 190h-47c-2-12 1-28-3-38-12 25-28 42-61 42" id="M"/><path d="M114-157C55-157 80-60 75 0H25v-261h50l-1 109c12-26 28-41 61-42 86-1 58 113 63 194h-50c-7-57 23-157-34-157" id="N"/><path d="M110-194c64 0 96 36 96 99 0 64-35 99-97 99-61 0-95-36-95-99 0-62 34-99 96-99zm-1 164c35 0 45-28 45-65 0-40-10-65-43-65-34 0-45 26-45 65 0 36 10 65 43 65" id="O"/><g id="i"><use transform="matrix(0.05,0,0,0.05,0,0)" xlink:href="#L"/><use transform="matrix(0.05,0,0,0.05,12.950000000000001,0)" xlink:href="#M"/><use transform="matrix(0.05,0,0,0.05,23.900000000000002,0)" xlink:href="#p"/><use transform="matrix(0.05,0,0,0.05,29.85,0)" xlink:href="#N"/><use transform="matrix(0.05,0,0,0.05,40.800000000000004,0)" xlink:href="#n"/><use transform="matrix(0.05,0,0,0.05,50.800000000000004,0)" xlink:href="#o"/><use transform="matrix(0.05,0,0,0.05,61.75,0)" xlink:href="#p"/><use transform="matrix(0.05,0,0,0.05,67.7,0)" xlink:href="#m"/><use transform="matrix(0.05,0,0,0.05,72.7,0)" xlink:href="#C"/><use transform="matrix(0.05,0,0,0.05,82.7,0)" xlink:href="#B"/><use transform="matrix(0.05,0,0,0.05,92.7,0)" xlink:href="#p"/><use transform="matrix(0.05,0,0,0.05,98.65,0)" xlink:href="#m"/><use transform="matrix(0.05,0,0,0.05,103.65,0)" xlink:href="#O"/><use transform="matrix(0.05,0,0,0.05,114.60000000000001,0)" xlink:href="#o"/></g><path d="M212-179c-10-28-35-45-73-45-59 0-87 40-87 99 0 60 29 101 89 101 43 0 62-24 78-52l27 14C228-24 195 4 139 4 59 4 22-46 18-125c-6-104 99-153 187-111 19 9 31 26 39 46" id="P"/><path d="M33 0v-38h34V0H33" id="Q"/><path d="M233-177c-1 41-23 64-60 70L243 0h-38l-65-103H63V0H30v-248c88 3 205-21 203 71zM63-129c60-2 137 13 137-47 0-61-80-42-137-45v92" id="R"/><path d="M232-93c-1 65-40 97-104 97C67 4 28-28 28-90v-158h33c8 89-33 224 67 224 102 0 64-133 71-224h33v155" id="S"/><g id="j"><use transform="matrix(0.05,0,0,0.05,0,0)" xlink:href="#P"/><use transform="matrix(0.05,0,0,0.05,12.950000000000001,0)" xlink:href="#Q"/><use transform="matrix(0.05,0,0,0.05,17.950000000000003,0)" xlink:href="#R"/><use transform="matrix(0.05,0,0,0.05,30.900000000000006,0)" xlink:href="#Q"/><use transform="matrix(0.05,0,0,0.05,35.900000000000006,0)" xlink:href="#S"/><use transform="matrix(0.05,0,0,0.05,48.85000000000001,0)" xlink:href="#Q"/><use transform="matrix(0.05,0,0,0.05,53.85,0)" xlink:href="#H"/></g></defs></g></svg>